<svg width="355" height="409" viewBox="0 0 355 409" fill="none" xmlns="http://www.w3.org/2000/svg">
<circle cx="1.5" cy="1.5" r="1.5" transform="matrix(-1 0 0 1 290 404)" fill="white" fill-opacity="0.3"/>
<circle cx="1.5" cy="1.5" r="1.5" transform="matrix(-1 0 0 1 290 320)" fill="white" fill-opacity="0.3"/>
<circle cx="1.5" cy="1.5" r="1.5" transform="matrix(-1 0 0 1 184 258)" fill="white" fill-opacity="0.1"/>
<circle cx="1.5" cy="1.5" r="1.5" transform="matrix(-1 0 0 1 54 262)" fill="white" fill-opacity="0.2"/>
<circle cx="1.5" cy="1.5" r="1.5" transform="matrix(-1 0 0 1 91 308)" fill="white" fill-opacity="0.3"/>
<circle cx="1.5" cy="1.5" r="1.5" transform="matrix(-1 0 0 1 147 272)" fill="white" fill-opacity="0.2"/>
<circle cx="1.5" cy="1.5" r="1.5" transform="matrix(-1 0 0 1 335 369)" fill="white" fill-opacity="0.3"/>
<circle cx="1.5" cy="1.5" r="1.5" transform="matrix(-1 0 0 1 33 376)" fill="white" fill-opacity="0.3"/>
<circle cx="1.5" cy="1.5" r="1.5" transform="matrix(-1 0 0 1 90 400)" fill="white" fill-opacity="0.3"/>
<circle cx="1.5" cy="1.5" r="1.5" transform="matrix(-1 0 0 1 40 325)" fill="white" fill-opacity="0.3"/>
<circle cx="1.5" cy="1.5" r="1.5" transform="matrix(-1 0 0 1 112 360)" fill="white" fill-opacity="0.3"/>
<circle cx="1.5" cy="1.5" r="1.5" transform="matrix(-1 0 0 1 240 405)" fill="white" fill-opacity="0.3"/>
<circle cx="1.5" cy="1.5" r="1.5" transform="matrix(-1 0 0 1 251 284)" fill="white" fill-opacity="0.3"/>
<circle cx="1.5" cy="1.5" r="1.5" transform="matrix(-1 0 0 1 333 272)" fill="white" fill-opacity="0.2"/>
<circle cx="66.5" cy="147.5" r="1.5" fill="white" fill-opacity="0.3"/>
<circle cx="66.5" cy="63.5" r="1.5" fill="white" fill-opacity="0.3"/>
<circle cx="172.5" cy="1.5" r="1.5" fill="white" fill-opacity="0.1"/>
<circle cx="302.5" cy="5.5" r="1.5" fill="white" fill-opacity="0.2"/>
<circle cx="265.5" cy="51.5" r="1.5" fill="white" fill-opacity="0.3"/>
<circle cx="209.5" cy="15.5" r="1.5" fill="white" fill-opacity="0.2"/>
<circle cx="21.5" cy="112.5" r="1.5" fill="white" fill-opacity="0.3"/>
<circle cx="330.5" cy="220.5" r="1.5" fill="white" fill-opacity="0.3"/>
<circle cx="28.5" cy="204.5" r="1.5" fill="white" fill-opacity="0.3"/>
<circle cx="6.5" cy="180.5" r="1.5" fill="white" fill-opacity="0.3"/>
<circle cx="323.5" cy="119.5" r="1.5" fill="white" fill-opacity="0.3"/>
<circle cx="266.5" cy="143.5" r="1.5" fill="white" fill-opacity="0.3"/>
<circle cx="348.5" cy="183.5" r="1.5" fill="white" fill-opacity="0.3"/>
<circle cx="316.5" cy="68.5" r="1.5" fill="white" fill-opacity="0.3"/>
<circle cx="244.5" cy="103.5" r="1.5" fill="white" fill-opacity="0.3"/>
<circle cx="116.5" cy="148.5" r="1.5" fill="white" fill-opacity="0.3"/>
<circle cx="105.5" cy="27.5" r="1.5" fill="white" fill-opacity="0.3"/>
<circle cx="23.5" cy="15.5" r="1.5" fill="white" fill-opacity="0.2"/>
<path d="M64.287 337.665L55.9245 335.949L64.1745 334.195L66.0345 325.758L68.022 334.24L76.1445 335.949L67.782 337.703L66.0345 346.14L64.287 337.665Z" fill="#D0C6F5"/>
<path d="M330.722 315.258L327 314.5L330.672 313.726L331.5 310L332.385 313.746L336 314.5L332.278 315.274L331.5 319L330.722 315.258Z" fill="#D0C6F5"/>
<path opacity="0.5" d="M3.72219 319.258L0 318.5L3.6721 317.726L4.50001 314L5.38464 317.746L9 318.5L5.27781 319.274L4.50001 323L3.72219 319.258Z" fill="#D0C6F5"/>
<path d="M31.7222 267.258L28 266.5L31.6721 265.726L32.5 262L33.3846 265.746L37 266.5L33.2778 267.274L32.5 271L31.7222 267.258Z" fill="#D0C6F5"/>
<path d="M97.7222 394.258L94 393.5L97.6721 392.726L98.5 389L99.3846 392.746L103 393.5L99.2778 394.274L98.5 398L97.7222 394.258Z" fill="#D0C6F5"/>
<path d="M221.722 263.258L218 262.5L221.672 261.726L222.5 258L223.385 261.746L227 262.5L223.278 263.274L222.5 267L221.722 263.258Z" fill="#D0C6F5"/>
<path d="M258.143 395.907L249.78 394.191L258.03 392.437L259.89 384L261.877 392.482L270 394.191L261.637 395.945L259.89 404.382L258.143 395.907Z" fill="#D0C6F5"/>
<path d="M120.143 282.907L111.78 281.191L120.03 279.437L121.89 271L123.877 279.482L132 281.191L123.637 282.945L121.89 291.382L120.143 282.907Z" fill="#D0C6F5"/>
<path d="M297.722 379.258L294 378.5L297.672 377.726L298.5 374L299.385 377.746L303 378.5L299.278 379.274L298.5 383L297.722 379.258Z" fill="#D0C6F5"/>
<path opacity="0.5" d="M349.722 379.258L346 378.5L349.672 377.726L350.5 374L351.385 377.746L355 378.5L351.278 379.274L350.5 383L349.722 379.258Z" fill="#D0C6F5"/>
<path d="M293.309 275.674L290 275L293.264 274.312L294 271L294.786 274.329L298 275L294.691 275.688L294 279L293.309 275.674Z" fill="#D0C6F5"/>
<path d="M290.713 79.6648L299.075 77.9487L290.825 76.1948L288.965 67.7578L286.978 76.2401L278.855 77.9487L287.218 79.7026L288.965 88.1396L290.713 79.6648Z" fill="#D0C6F5"/>
<path d="M24.2778 57.2578L28 56.5L24.3279 55.7255L23.5 52L22.6154 55.7456L19 56.5L22.7222 57.2745L23.5 61L24.2778 57.2578Z" fill="#D0C6F5"/>
<path opacity="0.5" d="M319.278 161.258L323 160.5L319.328 159.726L318.5 156L317.615 159.746L314 160.5L317.722 161.274L318.5 165L319.278 161.258Z" fill="#D0C6F5"/>
<path opacity="0.5" d="M351.278 61.2578L355 60.5L351.328 59.7255L350.5 56L349.615 59.7456L346 60.5L349.722 61.2745L350.5 65L351.278 61.2578Z" fill="#D0C6F5"/>
<path d="M323.278 9.25779L327 8.5L323.328 7.72552L322.5 4L321.615 7.74555L318 8.5L321.722 9.27448L322.5 13L323.278 9.25779Z" fill="#D0C6F5"/>
<path d="M257.278 136.258L261 135.5L257.328 134.726L256.5 131L255.615 134.746L252 135.5L255.722 136.274L256.5 140L257.278 136.258Z" fill="#D0C6F5"/>
<path d="M133.278 5.25779L137 4.5L133.328 3.72552L132.5 0L131.615 3.74555L128 4.5L131.722 5.27448L132.5 9L133.278 5.25779Z" fill="#D0C6F5"/>
<path d="M96.8575 137.907L105.22 136.191L96.97 134.437L95.11 126L93.1225 134.482L85 136.191L93.3625 137.945L95.11 146.382L96.8575 137.907Z" fill="#D0C6F5"/>
<path d="M234.857 24.907L243.22 23.1909L234.97 21.437L233.11 13L231.123 21.4823L223 23.1909L231.363 24.9448L233.11 33.3818L234.857 24.907Z" fill="#D0C6F5"/>
<path d="M57.2778 121.258L61 120.5L57.3279 119.726L56.5 116L55.6154 119.746L52 120.5L55.7222 121.274L56.5 125L57.2778 121.258Z" fill="#D0C6F5"/>
<path opacity="0.5" d="M5.27781 121.258L9 120.5L5.3279 119.726L4.49999 116L3.61536 119.746L0 120.5L3.72219 121.274L4.49999 125L5.27781 121.258Z" fill="#D0C6F5"/>
<path d="M61.6914 17.6736L65 17L61.7359 16.3116L61 13L60.2137 16.3294L57 17L60.3086 17.6884L61 21L61.6914 17.6736Z" fill="#D0C6F5"/>
</svg>
