<svg width="30" height="20" viewBox="0 0 30 20" fill="none" xmlns="http://www.w3.org/2000/svg">
<rect width="30" height="20" rx="3" fill="#E9E9EA"/>
<g clip-path="url(#clip0_248_1440)">
<path d="M3.28418 7.0625H5.4498C5.64668 7.0625 6.2373 7 6.4998 7.875C6.69668 8.4375 6.95918 9.3125 7.35293 10.625H7.48418C7.87793 9.25 8.20606 8.3125 8.33731 7.875C8.5998 7 9.25605 7.0625 9.51856 7.0625H11.5529V13.0625H9.45293V9.5H9.32168L8.20606 13.0625H6.63105L5.51543 9.5H5.31855V13.0625H3.28418M12.4061 7.0625H14.5061V10.625H14.7029L16.0811 7.6875C16.3436 7.125 16.9342 7.0625 16.9342 7.0625H18.9029V13.0625H16.8029V9.5H16.6717L15.2936 12.4375C15.0311 13 14.3748 13.0625 14.3748 13.0625H12.4061M21.7248 11.25V13.0625H19.7561V9.9375H26.1873C25.9248 10.6875 25.0061 11.25 23.9561 11.25" fill="#0F754E"/>
<path d="M26.3188 9.5625C26.5813 8.4375 25.7938 7.0625 24.0875 7.0625H19.625C19.7563 8.375 20.9375 9.5625 22.1844 9.5625" fill="url(#paint0_linear_248_1440)"/>
</g>
<defs>
<linearGradient id="paint0_linear_248_1440" x1="25.5313" y1="6.25" x2="20.2813" y2="6.25" gradientUnits="userSpaceOnUse">
<stop stop-color="#1F5CD7"/>
<stop offset="1" stop-color="#02AEFF"/>
</linearGradient>
<clipPath id="clip0_248_1440">
<rect width="26.25" height="7.5" fill="white" transform="translate(1.25 6.25)"/>
</clipPath>
</defs>
</svg>
