<svg width="30" height="20" viewBox="0 0 30 20" fill="none" xmlns="http://www.w3.org/2000/svg">
<rect width="30" height="20" rx="3" fill="#E9E9EA"/>
<g clip-path="url(#clip0_248_895)">
<path d="M18.3264 6.01221C16.766 6.01221 15.3714 6.91821 15.3714 8.59173C15.3714 10.5112 17.8446 10.6437 17.8446 11.6081C17.8446 12.0142 17.4293 12.3776 16.7195 12.3776C15.7126 12.3776 14.96 11.8698 14.96 11.8698L14.6379 13.5588C14.6379 13.5588 15.5049 13.9878 16.656 13.9878C18.3621 13.9878 19.7047 13.0375 19.7047 11.3351C19.7047 9.30677 17.2211 9.17815 17.2211 8.28324C17.2211 7.96515 17.5621 7.61674 18.2697 7.61674C19.068 7.61674 19.7192 7.98609 19.7192 7.98609L20.0345 6.35494C20.0345 6.35494 19.3257 6.01221 18.3262 6.01221H18.3264ZM4.04907 6.13541L4.01123 6.38156C4.01123 6.38156 4.66771 6.51609 5.25907 6.78466C6.02049 7.09241 6.07461 7.27179 6.20287 7.82815L7.60009 13.8607H9.47317L12.3587 6.13541H10.49L8.63585 11.3878L7.87927 6.93545C7.80997 6.42591 7.45841 6.13516 7.02831 6.13516H4.04929L4.04907 6.13541ZM13.1102 6.13541L11.6444 13.8607H13.4264L14.8869 6.13541H13.1102ZM23.0489 6.13541C22.6193 6.13541 22.3916 6.39314 22.2246 6.8433L19.6139 13.8607H21.4825L21.844 12.691H24.1206L24.3403 13.8607H25.9892L24.5509 6.13541H23.0489ZM23.292 8.22263L23.846 11.1215H22.3621L23.2922 8.22263H23.292Z" fill="#1434CB"/>
</g>
<defs>
<clipPath id="clip0_248_895">
<rect width="22" height="8" fill="white" transform="translate(4 6)"/>
</clipPath>
</defs>
</svg>
