<svg width="40" height="40" viewBox="0 0 40 40" fill="none" xmlns="http://www.w3.org/2000/svg">
<path d="M12.5323 24.6221C13.1262 25.1658 13.1724 26.0957 12.7351 26.7719C12.3339 27.3921 11.917 28.1533 11.586 28.9685C11.19 29.9438 10.7048 31.4404 10.9637 31.6245C11.2226 31.8076 11.6845 31.3179 12.1273 31.0285C12.9667 30.4802 13.9227 29.5984 14.8219 28.2524C15.2694 27.5825 16.1441 27.3036 16.8563 27.6798C17.5683 28.0562 17.8472 28.9442 17.4124 29.6224C16.2674 31.4083 14.9723 32.6565 13.7213 33.4738C12.2491 34.4355 10.5591 35.0091 9.39051 34.8308C8.86599 34.7506 8.66794 34.5503 8.48446 34.0518C7.7618 32.088 8.18931 29.5808 8.88386 27.8699C9.35128 26.7185 9.96164 25.6398 10.5554 24.7833C11.0144 24.1213 11.9377 24.0783 12.5323 24.6221ZM29.6332 5.14125C32.3956 7.09609 30.0328 12.8149 27.0263 17.9878C27.7025 20.8156 29.049 25.1419 29.0163 25.7194C28.9768 26.3974 26.7326 29.5501 25.6153 31.042C25.1441 31.6713 24.3672 32.81 22.7814 32.7225C21.4483 32.6487 19.4094 28.2931 18.6135 26.1963L13.3833 22.4971C11.1412 22.446 6.36604 21.9783 5.85068 20.7464C5.23822 19.2792 6.05169 18.1654 6.48688 17.5106C7.5189 15.9579 9.73854 12.7861 10.3632 12.5239C10.9075 12.2956 15.6059 12.1188 18.4828 11.8005C22.334 7.2718 26.8882 3.19968 29.6332 5.14125ZM18.7675 18.5746C18.3948 18.3111 17.8876 18.3473 17.5562 18.661C17.1177 19.0767 17.1686 19.7903 17.6618 20.1394L19.5068 21.4443C20.0004 21.7932 20.6892 21.6029 20.9343 21.0503C21.119 20.6329 20.9843 20.1425 20.6117 19.8789L18.7675 18.5746ZM26.3195 9.83441C25.4462 9.21677 24.2407 9.39944 23.5893 10.2478L20.3173 14.5112C19.5539 15.506 19.7706 16.9366 20.7944 17.6607C21.8182 18.3848 23.2378 18.1115 23.9196 17.0589L26.842 12.5472C27.4229 11.6495 27.1924 10.4521 26.3195 9.83441Z" fill="white"/>
</svg>
