<svg width="166" height="116" viewBox="0 0 166 116" fill="none" xmlns="http://www.w3.org/2000/svg">
<rect x="0.5" y="0.5" width="165" height="115" rx="19.5" fill="#E9E9EA" fill-opacity="0.15"/>
<rect x="0.5" y="0.5" width="165" height="115" rx="19.5" stroke="url(#paint0_linear_1_2726)"/>
<path d="M57.833 87.1666V51.6666C57.833 48.5283 59.0797 45.5184 61.2989 43.2992C63.5181 41.08 66.5279 39.8333 69.6663 39.8333C72.8047 39.8333 75.8146 41.08 78.0338 43.2992C80.2529 45.5184 81.4997 48.5283 81.4997 51.6666V87.1666M57.833 69.4166H81.4997M105.166 39.8333V87.1666" stroke="#769CEE" stroke-width="8" stroke-linecap="round" stroke-linejoin="round"/>
<path d="M123.75 17.8108C124.411 15.8767 127.083 15.8181 127.866 17.6351L127.933 17.8119L128.825 20.4202C129.029 21.0184 129.359 21.5658 129.793 22.0254C130.227 22.4851 130.755 22.8464 131.34 23.0849L131.58 23.1744L134.188 24.0652C136.122 24.7261 136.181 27.3985 134.365 28.1821L134.188 28.2484L131.58 29.1403C130.981 29.3446 130.434 29.6749 129.974 30.1088C129.514 30.5427 129.153 31.0703 128.914 31.6558L128.825 31.8945L127.934 34.504C127.273 36.4381 124.601 36.4967 123.818 34.6808L123.75 34.504L122.859 31.8956C122.655 31.2973 122.325 30.7497 121.891 30.2898C121.457 29.8299 120.929 29.4685 120.344 29.2299L120.105 29.1403L117.497 28.2495C115.562 27.5886 115.503 24.9162 117.32 24.1337L117.497 24.0652L120.105 23.1744C120.703 22.97 121.25 22.6397 121.71 22.2057C122.17 21.7718 122.531 21.2443 122.769 20.6589L122.859 20.4202L123.75 17.8108ZM134.683 14C134.89 14 135.092 14.058 135.268 14.1674C135.443 14.2768 135.585 14.4332 135.676 14.6189L135.729 14.7482L136.115 15.8822L137.25 16.269C137.458 16.3394 137.639 16.4697 137.772 16.6435C137.905 16.8172 137.984 17.0265 137.998 17.2449C138.012 17.4633 137.961 17.681 137.851 17.8702C137.741 18.0595 137.577 18.2119 137.381 18.3081L137.25 18.3612L136.116 18.748L135.73 19.8831C135.659 20.0902 135.529 20.2718 135.355 20.4047C135.181 20.5377 134.972 20.616 134.753 20.6299C134.535 20.6437 134.317 20.5924 134.128 20.4825C133.939 20.3726 133.787 20.209 133.691 20.0124L133.638 19.8831L133.251 18.7491L132.116 18.3623C131.909 18.2919 131.727 18.1616 131.594 17.9878C131.461 17.8141 131.382 17.6047 131.368 17.3864C131.354 17.168 131.406 16.9503 131.515 16.7611C131.625 16.5718 131.789 16.4194 131.985 16.3232L132.116 16.2701L133.25 15.8833L133.636 14.7482C133.711 14.5299 133.852 14.3403 134.04 14.2061C134.227 14.0719 134.452 13.9999 134.683 14Z" fill="#769CEE"/>
<defs>
<linearGradient id="paint0_linear_1_2726" x1="52" y1="4" x2="123" y2="112" gradientUnits="userSpaceOnUse">
<stop stop-color="#EEEEEE" stop-opacity="0.3"/>
<stop offset="1" stop-color="#EEEEEE" stop-opacity="0"/>
</linearGradient>
</defs>
</svg>
