<svg width="355" height="190" viewBox="0 0 355 190" fill="none" xmlns="http://www.w3.org/2000/svg">
<circle cx="66.5" cy="147.5" r="1.5" fill="white" fill-opacity="0.3"/>
<circle cx="66.5" cy="63.5" r="1.5" fill="white" fill-opacity="0.3"/>
<circle cx="172.5" cy="1.5" r="1.5" fill="white" fill-opacity="0.1"/>
<circle cx="302.5" cy="5.5" r="1.5" fill="white" fill-opacity="0.2"/>
<circle cx="265.5" cy="51.5" r="1.5" fill="white" fill-opacity="0.3"/>
<circle cx="209.5" cy="15.5" r="1.5" fill="white" fill-opacity="0.2"/>
<circle cx="21.5" cy="112.5" r="1.5" fill="white" fill-opacity="0.3"/>
<circle cx="6.5" cy="180.5" r="1.5" fill="white" fill-opacity="0.3"/>
<circle cx="323.5" cy="119.5" r="1.5" fill="white" fill-opacity="0.3"/>
<circle cx="266.5" cy="143.5" r="1.5" fill="white" fill-opacity="0.3"/>
<circle cx="348.5" cy="183.5" r="1.5" fill="white" fill-opacity="0.3"/>
<circle cx="316.5" cy="68.5" r="1.5" fill="white" fill-opacity="0.3"/>
<circle cx="244.5" cy="103.5" r="1.5" fill="white" fill-opacity="0.3"/>
<circle cx="116.5" cy="148.5" r="1.5" fill="white" fill-opacity="0.3"/>
<circle cx="105.5" cy="27.5" r="1.5" fill="white" fill-opacity="0.3"/>
<circle cx="23.5" cy="15.5" r="1.5" fill="white" fill-opacity="0.2"/>
<path d="M290.713 88.6648L299.075 86.9487L290.825 85.1948L288.965 76.7578L286.978 85.2401L278.855 86.9487L287.218 88.7026L288.965 97.1396L290.713 88.6648Z" fill="#D0C6F5"/>
<path d="M24.2778 66.2578L28 65.5L24.3279 64.7255L23.5 61L22.6154 64.7456L19 65.5L22.7222 66.2745L23.5 70L24.2778 66.2578Z" fill="#D0C6F5"/>
<path opacity="0.5" d="M319.278 170.258L323 169.5L319.328 168.726L318.5 165L317.615 168.746L314 169.5L317.722 170.274L318.5 174L319.278 170.258Z" fill="#D0C6F5"/>
<path opacity="0.5" d="M351.278 70.2578L355 69.5L351.328 68.7255L350.5 65L349.615 68.7456L346 69.5L349.722 70.2745L350.5 74L351.278 70.2578Z" fill="#D0C6F5"/>
<path d="M323.278 18.2578L327 17.5L323.328 16.7255L322.5 13L321.615 16.7456L318 17.5L321.722 18.2745L322.5 22L323.278 18.2578Z" fill="#D0C6F5"/>
<path d="M257.278 145.258L261 144.5L257.328 143.726L256.5 140L255.615 143.746L252 144.5L255.722 145.274L256.5 149L257.278 145.258Z" fill="#D0C6F5"/>
<path d="M133.278 14.2578L137 13.5L133.328 12.7255L132.5 9L131.615 12.7456L128 13.5L131.722 14.2745L132.5 18L133.278 14.2578Z" fill="#D0C6F5"/>
<path d="M96.8575 146.907L105.22 145.191L96.97 143.437L95.11 135L93.1225 143.482L85 145.191L93.3625 146.945L95.11 155.382L96.8575 146.907Z" fill="#D0C6F5"/>
<path d="M234.857 33.907L243.22 32.1909L234.97 30.437L233.11 22L231.123 30.4823L223 32.1909L231.363 33.9448L233.11 42.3818L234.857 33.907Z" fill="#D0C6F5"/>
<path d="M57.2778 130.258L61 129.5L57.3279 128.726L56.5 125L55.6154 128.746L52 129.5L55.7222 130.274L56.5 134L57.2778 130.258Z" fill="#D0C6F5"/>
<path opacity="0.5" d="M5.27781 130.258L9 129.5L5.3279 128.726L4.49999 125L3.61536 128.746L0 129.5L3.72219 130.274L4.49999 134L5.27781 130.258Z" fill="#D0C6F5"/>
<path d="M61.6914 26.6736L65 26L61.7359 25.3116L61 22L60.2137 25.3294L57 26L60.3086 26.6884L61 30L61.6914 26.6736Z" fill="#D0C6F5"/>
</svg>
