<svg width="185" height="156" viewBox="0 0 185 156" fill="none" xmlns="http://www.w3.org/2000/svg">
<g filter="url(#filter0_d_24849_2349)">
<g clip-path="url(#clip0_24849_2349)">
<rect x="20" y="20" width="116" height="116" rx="58" fill="#E9E9EA" fill-opacity="0.15" shape-rendering="crispEdges"/>
<path d="M78 52C83.5695 52 88.911 54.2125 92.8492 58.1508C96.7875 62.089 99 67.4305 99 73C99 78.5695 96.7875 83.911 92.8492 87.8492C88.911 91.7875 83.5695 94 78 94C72.4305 94 67.089 91.7875 63.1508 87.8492C59.2125 83.911 57 78.5695 57 73C57 67.4305 59.2125 62.089 63.1508 58.1508C67.089 54.2125 72.4305 52 78 52ZM78 104.5C101.205 104.5 120 113.897 120 125.5V136H36V125.5C36 113.897 54.795 104.5 78 104.5Z" fill="#97979B"/>
</g>
<rect x="21" y="21" width="114" height="114" rx="57" stroke="#8F84F1" stroke-width="2" shape-rendering="crispEdges"/>
</g>
<rect x="78.7588" y="12" width="105.966" height="37" rx="18.5" fill="#8F84F1"/>
<path d="M97.0543 26.5252C98.3302 26.5252 99.3955 27.01 100.25 27.9796C101.118 28.9365 101.552 30.1359 101.552 31.5776C101.552 33.0193 101.118 34.225 100.25 35.1946C99.3955 36.1515 98.3302 36.63 97.0543 36.63C95.8933 36.63 94.9874 36.2472 94.3367 35.4817V40.1896H91.1598V26.7931H94.3367V27.6734C94.9874 26.9079 95.8933 26.5252 97.0543 26.5252ZM94.8917 33.0895C95.2617 33.4722 95.7466 33.6636 96.3462 33.6636C96.9459 33.6636 97.4307 33.4722 97.8007 33.0895C98.1707 32.7067 98.3557 32.2027 98.3557 31.5776C98.3557 30.9524 98.1707 30.4484 97.8007 30.0657C97.4307 29.6829 96.9459 29.4915 96.3462 29.4915C95.7466 29.4915 95.2617 29.6829 94.8917 30.0657C94.5217 30.4484 94.3367 30.9524 94.3367 31.5776C94.3367 32.2027 94.5217 32.7067 94.8917 33.0895ZM106.749 28.5729C106.928 27.9477 107.285 27.4629 107.821 27.1184C108.357 26.774 108.956 26.6017 109.62 26.6017V30.1231C108.892 30.0083 108.229 30.1422 107.629 30.525C107.042 30.9077 106.749 31.5329 106.749 32.4005V36.3621H103.572V26.7931H106.749V28.5729ZM114.051 32.745C114.37 33.5233 115.084 33.9124 116.194 33.9124C116.883 33.9124 117.464 33.6891 117.936 33.2426L120.232 34.8502C119.288 36.0367 117.917 36.63 116.118 36.63C114.497 36.63 113.196 36.1579 112.214 35.2138C111.244 34.2569 110.759 33.0512 110.759 31.5967C110.759 30.155 111.238 28.9493 112.195 27.9796C113.151 27.01 114.37 26.5252 115.85 26.5252C117.279 26.5252 118.459 27.0036 119.39 27.9605C120.322 28.9174 120.787 30.1167 120.787 31.5584C120.787 31.9795 120.743 32.375 120.654 32.745H114.051ZM114.013 30.5441H117.687C117.432 29.651 116.832 29.2045 115.888 29.2045C114.906 29.2045 114.281 29.651 114.013 30.5441ZM133.775 26.5252C134.885 26.5252 135.759 26.8824 136.397 27.5969C137.048 28.2986 137.373 29.2683 137.373 30.5059V36.3621H134.177V30.8695C134.177 29.9764 133.781 29.5298 132.99 29.5298C132.556 29.5298 132.225 29.6765 131.995 29.97C131.778 30.2507 131.67 30.6398 131.67 31.1374V36.3621H128.493V30.8695C128.493 29.9764 128.091 29.5298 127.287 29.5298C126.853 29.5298 126.522 29.6765 126.292 29.97C126.075 30.2507 125.967 30.6398 125.967 31.1374V36.3621H122.79V26.7931H125.967V27.6926C126.554 26.9143 127.415 26.5252 128.55 26.5252C129.648 26.5252 130.464 26.9334 131 27.75C131.663 26.9334 132.588 26.5252 133.775 26.5252ZM142.596 25.4726C142.238 25.8298 141.811 26.0084 141.313 26.0084C140.816 26.0084 140.382 25.8298 140.012 25.4726C139.655 25.1026 139.476 24.6688 139.476 24.1712C139.476 23.6736 139.655 23.2462 140.012 22.889C140.382 22.5317 140.816 22.3531 141.313 22.3531C141.811 22.3531 142.238 22.5317 142.596 22.889C142.966 23.2462 143.151 23.6736 143.151 24.1712C143.151 24.6688 142.966 25.1026 142.596 25.4726ZM139.725 36.3621V26.7931H142.902V36.3621H139.725ZM151.438 26.7931H154.615V36.3621H151.438V35.4052C150.864 36.2217 149.977 36.63 148.778 36.63C147.745 36.63 146.896 36.2791 146.233 35.5774C145.582 34.8629 145.257 33.8422 145.257 32.5153V26.7931H148.434V32.1134C148.434 32.611 148.561 32.9874 148.816 33.2426C149.084 33.4977 149.435 33.6253 149.869 33.6253C150.367 33.6253 150.749 33.4786 151.017 33.1852C151.298 32.879 151.438 32.4452 151.438 31.8838V26.7931ZM168.077 26.5252C169.187 26.5252 170.061 26.8824 170.699 27.5969C171.35 28.2986 171.675 29.2683 171.675 30.5059V36.3621H168.479V30.8695C168.479 29.9764 168.084 29.5298 167.293 29.5298C166.859 29.5298 166.527 29.6765 166.298 29.97C166.081 30.2507 165.972 30.6398 165.972 31.1374V36.3621H162.795V30.8695C162.795 29.9764 162.393 29.5298 161.59 29.5298C161.156 29.5298 160.824 29.6765 160.594 29.97C160.378 30.2507 160.269 30.6398 160.269 31.1374V36.3621H157.092V26.7931H160.269V27.6926C160.856 26.9143 161.717 26.5252 162.853 26.5252C163.95 26.5252 164.767 26.9334 165.302 27.75C165.966 26.9334 166.891 26.5252 168.077 26.5252Z" fill="white"/>
<defs>
<filter id="filter0_d_24849_2349" x="-10" y="-10" width="176" height="176" filterUnits="userSpaceOnUse" color-interpolation-filters="sRGB">
<feFlood flood-opacity="0" result="BackgroundImageFix"/>
<feColorMatrix in="SourceAlpha" type="matrix" values="0 0 0 0 0 0 0 0 0 0 0 0 0 0 0 0 0 0 127 0" result="hardAlpha"/>
<feOffset/>
<feGaussianBlur stdDeviation="10"/>
<feComposite in2="hardAlpha" operator="out"/>
<feColorMatrix type="matrix" values="0 0 0 0 0.560784 0 0 0 0 0.517647 0 0 0 0 0.945098 0 0 0 1 0"/>
<feBlend mode="normal" in2="BackgroundImageFix" result="effect1_dropShadow_24849_2349"/>
<feBlend mode="normal" in="SourceGraphic" in2="effect1_dropShadow_24849_2349" result="shape"/>
</filter>
<clipPath id="clip0_24849_2349">
<rect x="20" y="20" width="116" height="116" rx="58" fill="white"/>
</clipPath>
</defs>
</svg>
