<svg width="89" height="24" viewBox="0 0 89 24" fill="none" xmlns="http://www.w3.org/2000/svg">
<path d="M22.3755 11.066C22.3771 11.2784 22.3126 11.4861 22.1907 11.6601C22.0689 11.8341 21.8959 11.9659 21.6958 12.037L18.4663 13.2114C17.9103 13.4136 17.4724 13.8516 17.2702 14.4076L16.0964 17.6364C16.0228 17.8346 15.8903 18.0056 15.7168 18.1263C15.5432 18.247 15.3368 18.3117 15.1254 18.3117C14.914 18.3117 14.7076 18.247 14.534 18.1263C14.3604 18.0056 14.228 17.8346 14.1544 17.6364L12.9806 14.4072C12.7784 13.8511 12.3404 13.413 11.7842 13.2108L8.555 12.037C8.35678 11.9634 8.18583 11.831 8.06511 11.6574C7.94439 11.4838 7.87969 11.2774 7.87969 11.066C7.87969 10.8546 7.94439 10.6482 8.06511 10.4746C8.18583 10.3011 8.35678 10.1686 8.555 10.095L11.7842 8.92123C12.3404 8.71907 12.7784 8.28098 12.9806 7.72481L14.1544 4.49562C14.228 4.29741 14.3604 4.12646 14.534 4.00574C14.7076 3.88502 14.914 3.82031 15.1254 3.82031C15.3368 3.82031 15.5432 3.88502 15.7168 4.00574C15.8903 4.12646 16.0228 4.29741 16.0964 4.49562L17.2708 7.72507C17.473 8.28109 17.911 8.71905 18.467 8.9212L21.6958 10.095C21.8959 10.1662 22.0689 10.2979 22.1907 10.4719C22.3126 10.646 22.3771 10.8536 22.3755 11.066Z" fill="white"/>
<path d="M10.8517 18.3984C10.8526 18.5169 10.8166 18.6327 10.7486 18.7298C10.6807 18.8269 10.5842 18.9004 10.4725 18.9401L9.05895 19.4541C8.50293 19.6563 8.06497 20.0943 7.86282 20.6503L7.34906 22.0635C7.30802 22.1741 7.23412 22.2694 7.1373 22.3368C7.04047 22.4041 6.92536 22.4402 6.80742 22.4402C6.68948 22.4402 6.57437 22.4041 6.47754 22.3368C6.38072 22.2694 6.30682 22.1741 6.26578 22.0635L5.75206 20.6502C5.54989 20.094 5.1118 19.656 4.55563 19.4538L3.14233 18.9401C3.03176 18.899 2.9364 18.8251 2.86906 18.7283C2.80172 18.6315 2.76562 18.5164 2.76562 18.3984C2.76562 18.2805 2.80172 18.1654 2.86906 18.0685C2.9364 17.9717 3.03176 17.8978 3.14233 17.8568L4.55563 17.3431C5.1118 17.1409 5.54989 16.7028 5.75206 16.1466L6.26578 14.7333C6.30682 14.6228 6.38072 14.5274 6.47754 14.4601C6.57437 14.3927 6.68948 14.3566 6.80742 14.3566C6.92536 14.3566 7.04047 14.3927 7.1373 14.4601C7.23412 14.5274 7.30802 14.6228 7.34906 14.7333L7.86311 16.1469C8.0653 16.7029 8.5033 17.1409 9.05934 17.343L10.4725 17.8568C10.5842 17.8965 10.6807 17.97 10.7486 18.067C10.8166 18.1641 10.8526 18.2799 10.8517 18.3984Z" fill="white" fill-opacity="0.7"/>
<path d="M10.1391 3.82078C10.1396 3.88707 10.1194 3.95186 10.0814 4.00616C10.0434 4.06047 9.98941 4.10158 9.92695 4.12378L9.08407 4.4303C8.80606 4.5314 8.58708 4.7504 8.486 5.02842L8.17965 5.87108C8.15669 5.93293 8.11536 5.98628 8.06119 6.02395C8.00703 6.06162 7.94263 6.08181 7.87665 6.08181C7.81068 6.08181 7.74628 6.06162 7.69212 6.02395C7.63795 5.98628 7.59661 5.93293 7.57365 5.87108L7.26732 5.02833C7.16624 4.75024 6.94719 4.5312 6.66911 4.43012L5.82635 4.12378C5.7645 4.10082 5.71116 4.05949 5.67349 4.00532C5.63582 3.95116 5.61562 3.88676 5.61562 3.82078C5.61562 3.75481 5.63582 3.69041 5.67349 3.63625C5.71116 3.58208 5.7645 3.54074 5.82635 3.51778L6.66911 3.21145C6.94719 3.11037 7.16624 2.89132 7.26732 2.61324L7.57365 1.77048C7.59661 1.70863 7.63795 1.65529 7.69212 1.61762C7.74628 1.57995 7.81068 1.55975 7.87665 1.55975C7.94263 1.55975 8.00703 1.57995 8.06119 1.61762C8.11536 1.65529 8.15669 1.70863 8.17965 1.77048L8.48617 2.61337C8.58727 2.89138 8.80627 3.11036 9.08429 3.21143L9.92695 3.51778C9.98941 3.53999 10.0434 3.5811 10.0814 3.6354C10.1194 3.6897 10.1396 3.7545 10.1391 3.82078Z" fill="white" fill-opacity="0.5"/>
<path d="M28.856 13.651C29.1507 14.7163 29.9497 15.249 31.253 15.249C32.0917 15.249 32.7263 14.9657 33.157 14.399L34.925 15.419C34.0863 16.6317 32.851 17.238 31.219 17.238C29.8137 17.238 28.686 16.813 27.836 15.963C26.986 15.113 26.561 14.042 26.561 12.75C26.561 11.4693 26.9803 10.404 27.819 9.554C28.6577 8.69267 29.7343 8.262 31.049 8.262C32.2957 8.262 33.3213 8.69267 34.126 9.554C34.942 10.4153 35.35 11.4807 35.35 12.75C35.35 13.0333 35.3217 13.3337 35.265 13.651H28.856ZM28.822 11.951H33.157C33.0323 11.373 32.7717 10.9423 32.375 10.659C31.9897 10.3757 31.5477 10.234 31.049 10.234C30.4597 10.234 29.9723 10.387 29.587 10.693C29.2017 10.9877 28.9467 11.407 28.822 11.951ZM41.7179 8.262C42.8626 8.262 43.8373 8.69833 44.6419 9.571C45.4579 10.4323 45.8659 11.492 45.8659 12.75C45.8659 14.008 45.4579 15.0733 44.6419 15.946C43.8373 16.8073 42.8626 17.238 41.7179 17.238C40.5279 17.238 39.6099 16.8243 38.9639 15.997V20.4H36.7709V8.5H38.9639V9.503C39.6099 8.67567 40.5279 8.262 41.7179 8.262ZM39.6269 14.484C40.0689 14.926 40.6299 15.147 41.3099 15.147C41.9899 15.147 42.5509 14.926 42.9929 14.484C43.4463 14.0307 43.6729 13.4527 43.6729 12.75C43.6729 12.0473 43.4463 11.475 42.9929 11.033C42.5509 10.5797 41.9899 10.353 41.3099 10.353C40.6299 10.353 40.0689 10.5797 39.6269 11.033C39.1849 11.475 38.9639 12.0473 38.9639 12.75C38.9639 13.4527 39.1849 14.0307 39.6269 14.484ZM48.3905 7.48C48.0279 7.48 47.7105 7.34967 47.4385 7.089C47.1779 6.817 47.0475 6.49967 47.0475 6.137C47.0475 5.77433 47.1779 5.457 47.4385 5.185C47.7105 4.913 48.0279 4.777 48.3905 4.777C48.7645 4.777 49.0819 4.913 49.3425 5.185C49.6145 5.457 49.7505 5.77433 49.7505 6.137C49.7505 6.49967 49.6145 6.817 49.3425 7.089C49.0819 7.34967 48.7645 7.48 48.3905 7.48ZM47.3025 17V8.5H49.4955V17H47.3025ZM53.3493 10.914C53.3493 11.1407 53.4967 11.3277 53.7913 11.475C54.0973 11.611 54.4657 11.7357 54.8963 11.849C55.327 11.951 55.7577 12.087 56.1883 12.257C56.619 12.4157 56.9817 12.6877 57.2763 13.073C57.5823 13.4583 57.7353 13.94 57.7353 14.518C57.7353 15.3907 57.4067 16.065 56.7493 16.541C56.1033 17.0057 55.293 17.238 54.3183 17.238C52.573 17.238 51.383 16.5637 50.7483 15.215L52.6523 14.144C52.9017 14.8807 53.457 15.249 54.3183 15.249C55.1003 15.249 55.4913 15.0053 55.4913 14.518C55.4913 14.2913 55.3383 14.11 55.0323 13.974C54.7377 13.8267 54.375 13.6963 53.9443 13.583C53.5137 13.4697 53.083 13.328 52.6523 13.158C52.2217 12.988 51.8533 12.7217 51.5473 12.359C51.2527 11.985 51.1053 11.5203 51.1053 10.965C51.1053 10.1263 51.4113 9.469 52.0233 8.993C52.6467 8.50567 53.4173 8.262 54.3353 8.262C55.0267 8.262 55.6557 8.42067 56.2223 8.738C56.789 9.044 57.2367 9.486 57.5653 10.064L55.6953 11.084C55.4233 10.506 54.97 10.217 54.3353 10.217C54.052 10.217 53.814 10.2793 53.6213 10.404C53.44 10.5287 53.3493 10.6987 53.3493 10.914ZM66.1614 15.946C65.2888 16.8073 64.2234 17.238 62.9654 17.238C61.7074 17.238 60.6421 16.8073 59.7694 15.946C58.9081 15.0733 58.4774 14.008 58.4774 12.75C58.4774 11.492 58.9081 10.4323 59.7694 9.571C60.6421 8.69833 61.7074 8.262 62.9654 8.262C64.2234 8.262 65.2888 8.69833 66.1614 9.571C67.0341 10.4323 67.4704 11.492 67.4704 12.75C67.4704 14.008 67.0341 15.0733 66.1614 15.946ZM61.3164 14.433C61.7584 14.875 62.3081 15.096 62.9654 15.096C63.6228 15.096 64.1724 14.875 64.6144 14.433C65.0564 13.991 65.2774 13.43 65.2774 12.75C65.2774 12.07 65.0564 11.509 64.6144 11.067C64.1724 10.625 63.6228 10.404 62.9654 10.404C62.3081 10.404 61.7584 10.625 61.3164 11.067C60.8858 11.509 60.6704 12.07 60.6704 12.75C60.6704 13.43 60.8858 13.991 61.3164 14.433ZM75.3462 5.1H77.5392V17H75.3462V15.997C74.7002 16.8243 73.7822 17.238 72.5922 17.238C71.4475 17.238 70.4672 16.8073 69.6512 15.946C68.8465 15.0733 68.4442 14.008 68.4442 12.75C68.4442 11.492 68.8465 10.4323 69.6512 9.571C70.4672 8.69833 71.4475 8.262 72.5922 8.262C73.7822 8.262 74.7002 8.67567 75.3462 9.503V5.1ZM71.3002 14.484C71.7535 14.926 72.3202 15.147 73.0002 15.147C73.6802 15.147 74.2412 14.926 74.6832 14.484C75.1252 14.0307 75.3462 13.4527 75.3462 12.75C75.3462 12.0473 75.1252 11.475 74.6832 11.033C74.2412 10.5797 73.6802 10.353 73.0002 10.353C72.3202 10.353 71.7535 10.5797 71.3002 11.033C70.8582 11.475 70.6372 12.0473 70.6372 12.75C70.6372 13.4527 70.8582 14.0307 71.3002 14.484ZM81.2878 13.651C81.5825 14.7163 82.3815 15.249 83.6848 15.249C84.5235 15.249 85.1581 14.9657 85.5888 14.399L87.3568 15.419C86.5181 16.6317 85.2828 17.238 83.6508 17.238C82.2455 17.238 81.1178 16.813 80.2678 15.963C79.4178 15.113 78.9928 14.042 78.9928 12.75C78.9928 11.4693 79.4121 10.404 80.2508 9.554C81.0895 8.69267 82.1661 8.262 83.4808 8.262C84.7275 8.262 85.7531 8.69267 86.5578 9.554C87.3738 10.4153 87.7818 11.4807 87.7818 12.75C87.7818 13.0333 87.7535 13.3337 87.6968 13.651H81.2878ZM81.2538 11.951H85.5888C85.4641 11.373 85.2035 10.9423 84.8068 10.659C84.4215 10.3757 83.9795 10.234 83.4808 10.234C82.8915 10.234 82.4041 10.387 82.0188 10.693C81.6335 10.9877 81.3785 11.407 81.2538 11.951Z" fill="white"/>
</svg>
