<svg width="30" height="20" viewBox="0 0 30 20" fill="none" xmlns="http://www.w3.org/2000/svg">
<rect width="30" height="20" rx="3" fill="#E9E9EA"/>
<path d="M17.1659 6.06934H12.8213V13.9302H17.1659V6.06934Z" fill="#FF5A00"/>
<path d="M13.1104 10C13.1104 8.40291 13.8559 6.98544 14.9999 6.06958C14.158 5.40291 13.0959 5 11.9375 5C9.19317 5 6.97266 7.23625 6.97266 10C6.97266 12.7638 9.19317 15 11.9375 15C13.0959 15 14.158 14.5971 14.9999 13.9304C13.8543 13.0275 13.1104 11.5971 13.1104 10Z" fill="#EB001B"/>
<path d="M23.0273 10C23.0273 12.7638 20.8068 15 18.0624 15C16.904 15 15.8419 14.5971 15 13.9304C16.1585 13.0129 16.8895 11.5971 16.8895 10C16.8895 8.40291 16.144 6.98544 15 6.06958C15.8403 5.40291 16.9024 5 18.0608 5C20.8068 5 23.0273 7.25081 23.0273 10Z" fill="#F79E1B"/>
</svg>
