<svg width="375" height="538" viewBox="0 0 375 538" fill="none" xmlns="http://www.w3.org/2000/svg">
<circle cx="1.5" cy="1.5" r="1.5" transform="matrix(-1 0 0 1 300 478)" fill="white" fill-opacity="0.3"/>
<circle cx="1.5" cy="1.5" r="1.5" transform="matrix(-1 0 0 1 300 394)" fill="white" fill-opacity="0.3"/>
<circle cx="1.5" cy="1.5" r="1.5" transform="matrix(-1 0 0 1 194 332)" fill="white" fill-opacity="0.1"/>
<circle cx="1.5" cy="1.5" r="1.5" transform="matrix(-1 0 0 1 64 336)" fill="white" fill-opacity="0.2"/>
<circle cx="1.5" cy="1.5" r="1.5" transform="matrix(-1 0 0 1 101 382)" fill="white" fill-opacity="0.3"/>
<circle cx="1.5" cy="1.5" r="1.5" transform="matrix(-1 0 0 1 157 346)" fill="white" fill-opacity="0.2"/>
<circle cx="1.5" cy="1.5" r="1.5" transform="matrix(-1 0 0 1 345 443)" fill="white" fill-opacity="0.3"/>
<circle cx="1.5" cy="1.5" r="1.5" transform="matrix(-1 0 0 1 338 535)" fill="white" fill-opacity="0.3"/>
<circle cx="1.5" cy="1.5" r="1.5" transform="matrix(-1 0 0 1 360 511)" fill="white" fill-opacity="0.3"/>
<circle cx="1.5" cy="1.5" r="1.5" transform="matrix(-1 0 0 1 43 450)" fill="white" fill-opacity="0.3"/>
<circle cx="1.5" cy="1.5" r="1.5" transform="matrix(-1 0 0 1 100 474)" fill="white" fill-opacity="0.3"/>
<circle cx="1.5" cy="1.5" r="1.5" transform="matrix(-1 0 0 1 18 514)" fill="white" fill-opacity="0.3"/>
<circle cx="1.5" cy="1.5" r="1.5" transform="matrix(-1 0 0 1 50 399)" fill="white" fill-opacity="0.3"/>
<circle cx="1.5" cy="1.5" r="1.5" transform="matrix(-1 0 0 1 122 434)" fill="white" fill-opacity="0.3"/>
<circle cx="1.5" cy="1.5" r="1.5" transform="matrix(-1 0 0 1 250 479)" fill="white" fill-opacity="0.3"/>
<circle cx="1.5" cy="1.5" r="1.5" transform="matrix(-1 0 0 1 261 358)" fill="white" fill-opacity="0.3"/>
<circle cx="1.5" cy="1.5" r="1.5" transform="matrix(-1 0 0 1 343 346)" fill="white" fill-opacity="0.2"/>
<circle cx="76.5" cy="221.5" r="1.5" fill="white" fill-opacity="0.3"/>
<circle cx="76.5" cy="137.5" r="1.5" fill="white" fill-opacity="0.3"/>
<circle cx="182.5" cy="75.5" r="1.5" fill="white" fill-opacity="0.1"/>
<circle cx="312.5" cy="79.5" r="1.5" fill="white" fill-opacity="0.2"/>
<circle cx="275.5" cy="125.5" r="1.5" fill="white" fill-opacity="0.3"/>
<circle cx="219.5" cy="89.5" r="1.5" fill="white" fill-opacity="0.2"/>
<circle cx="31.5" cy="186.5" r="1.5" fill="white" fill-opacity="0.3"/>
<circle cx="340.5" cy="294.5" r="1.5" fill="white" fill-opacity="0.3"/>
<circle cx="38.5" cy="278.5" r="1.5" fill="white" fill-opacity="0.3"/>
<circle cx="16.5" cy="254.5" r="1.5" fill="white" fill-opacity="0.3"/>
<circle cx="333.5" cy="193.5" r="1.5" fill="white" fill-opacity="0.3"/>
<circle cx="276.5" cy="217.5" r="1.5" fill="white" fill-opacity="0.3"/>
<circle cx="358.5" cy="257.5" r="1.5" fill="white" fill-opacity="0.3"/>
<circle cx="326.5" cy="142.5" r="1.5" fill="white" fill-opacity="0.3"/>
<circle cx="254.5" cy="177.5" r="1.5" fill="white" fill-opacity="0.3"/>
<circle cx="126.5" cy="222.5" r="1.5" fill="white" fill-opacity="0.3"/>
<circle cx="115.5" cy="101.5" r="1.5" fill="white" fill-opacity="0.3"/>
<circle cx="33.5" cy="89.5" r="1.5" fill="white" fill-opacity="0.2"/>
<path d="M74.287 420.665L65.9245 418.949L74.1745 417.195L76.0345 408.758L78.022 417.24L86.1445 418.949L77.782 420.703L76.0345 429.14L74.287 420.665Z" fill="#D0C6F5"/>
<path d="M340.722 398.258L337 397.5L340.672 396.726L341.5 393L342.385 396.746L346 397.5L342.278 398.274L341.5 402L340.722 398.258Z" fill="#D0C6F5"/>
<path opacity="0.5" d="M45.7222 502.258L42 501.5L45.6721 500.726L46.5 497L47.3846 500.746L51 501.5L47.2778 502.274L46.5 506L45.7222 502.258Z" fill="#D0C6F5"/>
<path opacity="0.5" d="M13.7222 402.258L10 401.5L13.6721 400.726L14.5 397L15.3846 400.746L19 401.5L15.2778 402.274L14.5 406L13.7222 402.258Z" fill="#D0C6F5"/>
<path d="M41.7222 350.258L38 349.5L41.6721 348.726L42.5 345L43.3846 348.746L47 349.5L43.2778 350.274L42.5 354L41.7222 350.258Z" fill="#D0C6F5"/>
<path d="M107.722 477.258L104 476.5L107.672 475.726L108.5 472L109.385 475.746L113 476.5L109.278 477.274L108.5 481L107.722 477.258Z" fill="#D0C6F5"/>
<path d="M231.722 346.258L228 345.5L231.672 344.726L232.5 341L233.385 344.746L237 345.5L233.278 346.274L232.5 350L231.722 346.258Z" fill="#D0C6F5"/>
<path d="M268.143 478.907L259.78 477.191L268.03 475.437L269.89 467L271.877 475.482L280 477.191L271.637 478.945L269.89 487.382L268.143 478.907Z" fill="#D0C6F5"/>
<path d="M130.143 365.907L121.78 364.191L130.03 362.437L131.89 354L133.877 362.482L142 364.191L133.637 365.945L131.89 374.382L130.143 365.907Z" fill="#D0C6F5"/>
<path d="M307.722 462.258L304 461.5L307.672 460.726L308.5 457L309.385 460.746L313 461.5L309.278 462.274L308.5 466L307.722 462.258Z" fill="#D0C6F5"/>
<path opacity="0.5" d="M359.722 462.258L356 461.5L359.672 460.726L360.5 457L361.385 460.746L365 461.5L361.278 462.274L360.5 466L359.722 462.258Z" fill="#D0C6F5"/>
<path d="M303.309 358.674L300 358L303.264 357.312L304 354L304.786 357.329L308 358L304.691 358.688L304 362L303.309 358.674Z" fill="#D0C6F5"/>
<path d="M300.713 162.665L309.075 160.949L300.825 159.195L298.965 150.758L296.978 159.24L288.855 160.949L297.218 162.703L298.965 171.14L300.713 162.665Z" fill="#D0C6F5"/>
<path d="M34.2778 140.258L38 139.5L34.3279 138.726L33.5 135L32.6154 138.746L29 139.5L32.7222 140.274L33.5 144L34.2778 140.258Z" fill="#D0C6F5"/>
<path opacity="0.5" d="M329.278 244.258L333 243.5L329.328 242.726L328.5 239L327.615 242.746L324 243.5L327.722 244.274L328.5 248L329.278 244.258Z" fill="#D0C6F5"/>
<path opacity="0.5" d="M361.278 144.258L365 143.5L361.328 142.726L360.5 139L359.615 142.746L356 143.5L359.722 144.274L360.5 148L361.278 144.258Z" fill="#D0C6F5"/>
<path d="M333.278 92.2578L337 91.5L333.328 90.7255L332.5 87L331.615 90.7456L328 91.5L331.722 92.2745L332.5 96L333.278 92.2578Z" fill="#D0C6F5"/>
<path d="M267.278 219.258L271 218.5L267.328 217.726L266.5 214L265.615 217.746L262 218.5L265.722 219.274L266.5 223L267.278 219.258Z" fill="#D0C6F5"/>
<path d="M143.278 88.2578L147 87.5L143.328 86.7255L142.5 83L141.615 86.7456L138 87.5L141.722 88.2745L142.5 92L143.278 88.2578Z" fill="#D0C6F5"/>
<path d="M106.857 220.907L115.22 219.191L106.97 217.437L105.11 209L103.123 217.482L95 219.191L103.363 220.945L105.11 229.382L106.857 220.907Z" fill="#D0C6F5"/>
<path d="M244.857 107.907L253.22 106.191L244.97 104.437L243.11 96L241.123 104.482L233 106.191L241.363 107.945L243.11 116.382L244.857 107.907Z" fill="#D0C6F5"/>
<path d="M67.2778 204.258L71 203.5L67.3279 202.726L66.5 199L65.6154 202.746L62 203.5L65.7222 204.274L66.5 208L67.2778 204.258Z" fill="#D0C6F5"/>
<path opacity="0.5" d="M15.2778 204.258L19 203.5L15.3279 202.726L14.5 199L13.6154 202.746L10 203.5L13.7222 204.274L14.5 208L15.2778 204.258Z" fill="#D0C6F5"/>
<path d="M71.6914 100.674L75 100L71.7359 99.3116L71 96L70.2137 99.3294L67 100L70.3086 100.688L71 104L71.6914 100.674Z" fill="#D0C6F5"/>
</svg>
